<svg width="50" height="50" viewBox="0 0 50 50" fill="none" xmlns="http://www.w3.org/2000/svg">
<path fill-rule="evenodd" clip-rule="evenodd" d="M28.8639 49.7032C40.8363 47.8457 50 37.493 50 25C50 11.1929 38.8071 0 25 0C11.1929 0 0 11.1929 0 25C0 37.3687 8.98228 47.6395 20.7797 49.6453V34.9827H15.7816C15.3501 34.9827 15 34.6329 15 34.2011V27.8989C15 27.467 15.3497 27.1169 15.7816 27.1169H20.7797V22.7672C20.7797 17.0361 24.3887 13.3333 29.9734 13.3333L34.9443 13.3413C35.3754 13.3421 35.7247 13.6919 35.7247 14.1229V19.9749C35.7247 20.4064 35.375 20.7565 34.9435 20.7565L31.5949 20.7577C29.2863 20.7577 28.8639 21.6574 28.8639 23.4296V27.1169H34.7098C34.9172 27.1169 35.1166 27.1994 35.2629 27.3462C35.4093 27.4929 35.4918 27.6915 35.4918 27.8989L35.4894 34.2011C35.4894 34.6329 35.1397 34.9827 34.7078 34.9827H28.8639V49.7032Z" fill="#D5DDE0"/>
</svg>
