<svg width="50" height="50" viewBox="0 0 50 50" fill="none" xmlns="http://www.w3.org/2000/svg">
<path fill-rule="evenodd" clip-rule="evenodd" d="M25 50C38.8071 50 50 38.8071 50 25C50 11.1929 38.8071 0 25 0C11.1929 0 0 11.1929 0 25C0 38.8071 11.1929 50 25 50ZM33.0155 27.8333H25V22.1667H39.1667V25C39.1667 32.8115 32.8115 39.1667 25 39.1667C17.1885 39.1667 10.8333 32.8115 10.8333 25C10.8333 17.1885 17.1885 10.8333 25 10.8333C28.4028 10.8333 31.6782 12.0573 34.2282 14.2787L30.5052 18.5513C28.9865 17.2282 27.0315 16.5 25 16.5C20.3137 16.5 16.5 20.3137 16.5 25C16.5 29.6863 20.3137 33.5 25 33.5C28.6947 33.5 31.8453 31.1313 33.0155 27.8333Z" fill="#D5DDE0"/>
</svg>
