<svg width="50" height="50" viewBox="0 0 50 50" fill="none" xmlns="http://www.w3.org/2000/svg">
<path fill-rule="evenodd" clip-rule="evenodd" d="M25 50C38.8071 50 50 38.8071 50 25C50 11.1929 38.8071 0 25 0C11.1929 0 0 11.1929 0 25C0 38.8071 11.1929 50 25 50ZM18.4819 38.0334C19.7506 38.2335 21.0117 38.3333 22.2369 38.3333C23.6549 38.3333 25.025 38.1993 26.3008 37.9322C28.9017 37.3876 31.0908 36.3225 32.8076 34.7668C34.1949 33.5094 35.2407 31.9507 35.9156 30.1341C36.6291 28.2139 36.9277 25.9988 36.8034 23.5505C36.7707 22.9062 36.946 22.2918 37.2971 21.82C38.6993 19.9359 38.8018 19.7806 38.8842 19.6558L38.8854 19.6539C38.9055 19.6233 38.921 19.5998 38.9784 19.5209L40 18.116L38.2715 18.1948C38.1965 18.198 38.1248 18.203 38.0552 18.2089L39.1107 15.1755L37.4921 15.7367C37.0577 15.8872 36.7096 16.0191 36.4025 16.1354L36.3922 16.1393L36.392 16.1394C35.8776 16.3342 35.497 16.4784 34.9804 16.6135C33.9225 15.6566 32.5905 15.1035 31.1234 15.0128C29.7406 14.9273 28.3455 15.2721 27.1951 15.9835C26.1592 16.6243 25.3797 17.5233 24.9415 18.5834C24.5652 19.4939 24.4515 20.5097 24.6032 21.5622C20.888 21.0435 17.7578 19.2714 15.2863 16.2841L14.5049 15.3397L13.9206 16.419C13.1824 17.7826 12.9373 19.3419 13.2302 20.8097C13.3504 21.4115 13.5549 21.9857 13.8378 22.5234L13.1671 22.262L13.0875 23.3893C13.0069 24.5347 13.3858 25.8713 14.1015 26.9652C14.3028 27.273 14.5624 27.6114 14.8912 27.9448L14.5445 27.8916L14.9673 29.1831C15.523 30.8806 16.6776 32.1937 18.1756 32.9236C16.6795 33.5623 15.4709 33.9701 13.4842 34.6274L11.6667 35.2288L13.3454 36.1524C13.9855 36.5045 16.2474 37.6806 18.4819 38.0334Z" fill="#D5DDE0"/>
</svg>
