<svg width="188" height="32" viewBox="0 0 188 32" fill="none" xmlns="http://www.w3.org/2000/svg">
<path d="M13.4696 8.42045H18.1855C18.1173 4.27273 14.7082 1.40909 9.52642 1.40909C4.42415 1.40909 0.685513 4.22727 0.70824 8.45454C0.696877 11.8864 3.11733 13.8523 7.04915 14.7955L9.58324 15.4318C12.1173 16.0455 13.5264 16.7727 13.5378 18.3409C13.5264 20.0455 11.9128 21.2045 9.41279 21.2045C6.85597 21.2045 5.01506 20.0227 4.85597 17.6932H0.0946038C0.219604 22.7273 3.82188 25.3295 9.4696 25.3295C15.1514 25.3295 18.4923 22.6136 18.5037 18.3523C18.4923 14.4773 15.5719 12.4205 11.5264 11.5114L9.43551 11.0114C7.41279 10.5455 5.7196 9.79545 5.7537 8.125C5.7537 6.625 7.08324 5.52273 9.49233 5.52273C11.8446 5.52273 13.2878 6.59091 13.4696 8.42045ZM21.9224 31.5455H26.7634V22.2045H26.9111C27.5815 23.6591 29.0474 25.2841 31.8656 25.2841C35.8429 25.2841 38.9452 22.1364 38.9452 16.2955C38.9452 10.2955 35.7065 7.31818 31.877 7.31818C28.9565 7.31818 27.5588 9.05682 26.9111 10.4773H26.6952V7.54545H21.9224V31.5455ZM26.6611 16.2727C26.6611 13.1591 27.9793 11.1705 30.3315 11.1705C32.7293 11.1705 34.002 13.25 34.002 16.2727C34.002 19.3182 32.7065 21.4318 30.3315 21.4318C28.002 21.4318 26.6611 19.3864 26.6611 16.2727ZM50.2588 25.3409C55.5543 25.3409 58.8497 21.7159 58.8497 16.3409C58.8497 10.9318 55.5543 7.31818 50.2588 7.31818C44.9634 7.31818 41.6679 10.9318 41.6679 16.3409C41.6679 21.7159 44.9634 25.3409 50.2588 25.3409ZM50.2815 21.5909C47.8384 21.5909 46.5884 19.3523 46.5884 16.3068C46.5884 13.2614 47.8384 11.0114 50.2815 11.0114C52.6793 11.0114 53.9293 13.2614 53.9293 16.3068C53.9293 19.3523 52.6793 21.5909 50.2815 21.5909ZM62.1974 25H67.0384V15.125C67.0384 12.9773 68.6065 11.5 70.7429 11.5C71.4134 11.5 72.3338 11.6136 72.7884 11.7614V7.46591C72.3565 7.36364 71.7543 7.29545 71.2656 7.29545C69.3111 7.29545 67.7088 8.43182 67.0724 10.5909H66.8906V7.54545H62.1974V25ZM85.6503 7.54545H82.3662V3.36364H77.5253V7.54545H75.1389V11.1818H77.5253V20.2727C77.5026 23.6932 79.8321 25.3864 83.3435 25.2386C84.5935 25.1932 85.4798 24.9432 85.9685 24.7841L85.2071 21.1818C84.9685 21.2273 84.4571 21.3409 84.0026 21.3409C83.0367 21.3409 82.3662 20.9773 82.3662 19.6364V11.1818H85.6503V7.54545Z" fill="#3E4958"/>
<path d="M89.0946 25H94.0151V15.3864H103.481V11.3295H94.0151V5.78409H104.504V1.72727H89.0946V25ZM107.922 25H112.763V7.54545H107.922V25ZM110.354 5.29545C111.797 5.29545 112.979 4.19318 112.979 2.84091C112.979 1.5 111.797 0.397726 110.354 0.397726C108.922 0.397726 107.741 1.5 107.741 2.84091C107.741 4.19318 108.922 5.29545 110.354 5.29545ZM121.682 14.9091C121.693 12.6591 123.034 11.3409 124.989 11.3409C126.932 11.3409 128.103 12.6136 128.091 14.75V25H132.932V13.8864C132.932 9.81818 130.546 7.31818 126.909 7.31818C124.318 7.31818 122.443 8.59091 121.659 10.625H121.455V7.54545H116.841V25H121.682V14.9091ZM143.379 25.2841C146.197 25.2841 147.663 23.6591 148.334 22.2045H148.538V25H153.311V1.72727H148.482V10.4773H148.334C147.686 9.05682 146.288 7.31818 143.368 7.31818C139.538 7.31818 136.3 10.2955 136.3 16.2955C136.3 22.1364 139.402 25.2841 143.379 25.2841ZM144.913 21.4318C142.538 21.4318 141.243 19.3182 141.243 16.2727C141.243 13.25 142.516 11.1705 144.913 11.1705C147.266 11.1705 148.584 13.1591 148.584 16.2727C148.584 19.3864 147.243 21.4318 144.913 21.4318ZM165.446 25.3409C169.764 25.3409 172.673 23.2386 173.355 20L168.878 19.7045C168.389 21.0341 167.139 21.7273 165.525 21.7273C163.105 21.7273 161.571 20.125 161.571 17.5227V17.5114H173.457V16.1818C173.457 10.25 169.866 7.31818 165.253 7.31818C160.116 7.31818 156.787 10.9659 156.787 16.3523C156.787 21.8864 160.071 25.3409 165.446 25.3409ZM161.571 14.5114C161.673 12.5227 163.184 10.9318 165.332 10.9318C167.434 10.9318 168.889 12.4318 168.9 14.5114H161.571ZM176.816 25H181.657V15.125C181.657 12.9773 183.225 11.5 185.362 11.5C186.032 11.5 186.953 11.6136 187.407 11.7614V7.46591C186.975 7.36364 186.373 7.29545 185.884 7.29545C183.93 7.29545 182.328 8.43182 181.691 10.5909H181.509V7.54545H176.816V25Z" fill="#DA5C5C"/>
</svg>
